<?xml version="1.0" encoding="UTF-8"?><svg id="_レイヤー_2" xmlns="http://www.w3.org/2000/svg" viewBox="0 0 449.89 449.89"><defs><style>.cls-1{stroke-miterlimit:8;}.cls-1,.cls-2,.cls-3,.cls-4,.cls-5{fill:none;}.cls-1,.cls-2,.cls-3,.cls-5{stroke:#231815;}.cls-1,.cls-3,.cls-5{stroke-width:25px;}.cls-2{fill-rule:evenodd;}.cls-2,.cls-3{stroke-miterlimit:10;}.cls-5{stroke-linecap:round;stroke-linejoin:round;}</style></defs><g id="_レイヤー_1-2"><path class="cls-3" d="M228.19,88.75c15.96-.44,26.29,18.71,17.33,31.8-11.13-2.59-23.6-2.55-34.78-.23-8.78-13.08,1.63-32.01,17.45-31.57Z"/><path class="cls-2" d="M186.19,328.87h84l-1.73,5.57c-6.64,15.7-22.17,26.71-40.27,26.71s-33.64-11.02-40.27-26.71l-1.73-5.57h0Z"/><path class="cls-1" d="M186.19,328.87h84l-1.73,5.57c-6.64,15.7-22.17,26.71-40.27,26.71s-33.64-11.02-40.27-26.71l-1.73-5.57h0Z"/><path class="cls-5" d="M227.69,119.59c46.16,0,83.59,37.41,83.59,83.55,3.4,29.98-1.65,70.4,8.61,91.9l2.12,3.79h2.6c6.46,0,11.7,5.24,11.7,11.7v1.38c0,6.46-5.24,11.7-11.7,11.7H131.78c-6.46,0-11.7-5.24-11.7-11.7v-1.38c0-6.46,5.24-11.7,11.7-11.7h2.67l1.49-3.61c7.95-22.08,8.17-65.96,8.17-92.07,0-46.14,37.42-83.55,83.59-83.55h0Z"/><path class="cls-5" d="M386.37,177.72c27.67,27.68,27.67,72.54,0,100.22"/><path class="cls-5" d="M356.56,203.48c13.44,13.44,13.44,35.24,0,48.68"/><path class="cls-5" d="M63.53,177.72c-27.67,27.68-27.67,72.54,0,100.22"/><path class="cls-5" d="M93.34,203.48c-13.44,13.44-13.44,35.24,0,48.68"/><rect class="cls-4" width="449.89" height="449.89"/></g></svg>