<?xml version="1.0" encoding="UTF-8"?><svg id="_レイヤー_2" xmlns="http://www.w3.org/2000/svg" xmlns:xlink="http://www.w3.org/1999/xlink" viewBox="0 0 449.89 449.89"><defs><style>.cls-1{stroke-linecap:round;stroke-linejoin:round;}.cls-1,.cls-2{stroke-width:25px;}.cls-1,.cls-2,.cls-3,.cls-4,.cls-5,.cls-6{fill:none;}.cls-1,.cls-2,.cls-6{stroke:#040000;}.cls-7{clip-path:url(#clippath-1);}.cls-8{fill:#040000;}.cls-8,.cls-4{fill-rule:evenodd;}.cls-2,.cls-6{stroke-miterlimit:8;}.cls-9{clip-path:url(#clippath);}.cls-3{clip-rule:evenodd;}</style><clipPath id="clippath"><polygon class="cls-3" points="29.95 419.47 419.95 419.47 419.95 30.43 29.95 30.43 29.95 419.47 29.95 419.47"/></clipPath><clipPath id="clippath-1"><polygon class="cls-3" points="29.95 419.47 419.95 419.47 419.95 30.43 29.95 30.43 29.95 419.47 29.95 419.47"/></clipPath></defs><g id="_レイヤー_1-2"><rect class="cls-5" width="449.89" height="449.89"/><path class="cls-1" d="M142.67,42.91h148.05c9.21,0,16.67,7.46,16.67,16.67v127.42l-5.12-3.83c-14.03-9.48-30.95-15.02-49.16-15.02-48.56,0-87.93,39.38-87.93,87.95s39.37,87.95,87.93,87.95c18.21,0,35.13-5.54,49.16-15.02l5.12-3.83v64.99c0,9.21-7.46,16.67-16.67,16.67H59.1c-9.21,0-16.67-7.46-16.67-16.67V143.17L142.67,42.91h0Z"/><path class="cls-8" d="M127.4,143.23H43.87L144.07,42.91V126.54c0,9.21-7.46,16.68-16.66,16.68h0Z"/><path class="cls-6" d="M127.4,143.23H43.87L144.07,42.91V126.54c0,9.21-7.46,16.68-16.66,16.68h0Z"/><path class="cls-2" d="M164.67,255.95c-1.67-114.13,177.49-114.13,175.8,0,1.65,114.12-177.47,114.12-175.8,0Z"/><line class="cls-1" x1="314.65" y1="318.11" x2="405.36" y2="406.68"/><g class="cls-9"><line class="cls-1" x1="92.11" y1="221.59" x2="169.4" y2="221.59"/><g class="cls-7"><line class="cls-1" x1="92.11" y1="304.87" x2="177.41" y2="304.87"/></g></g><polygon class="cls-4" points="29.95 419.47 419.95 419.47 419.95 30.43 29.95 30.43 29.95 419.47 29.95 419.47"/><polygon class="cls-4" points="29.95 419.47 419.95 419.47 419.95 30.43 29.95 30.43 29.95 419.47 29.95 419.47"/><polygon class="cls-4" points="29.95 419.47 419.95 419.47 419.95 30.43 29.95 30.43 29.95 419.47 29.95 419.47"/></g></svg>