<?xml version="1.0" encoding="UTF-8"?><svg id="_レイヤー_2" xmlns="http://www.w3.org/2000/svg" xmlns:xlink="http://www.w3.org/1999/xlink" viewBox="0 0 446.89 446.89"><defs><style>.cls-1{stroke-linecap:round;stroke-linejoin:round;}.cls-1,.cls-2{stroke:#040000;stroke-width:25px;}.cls-1,.cls-2,.cls-3,.cls-4{fill:none;}.cls-5{clip-path:url(#clippath-2);}.cls-6{clip-path:url(#clippath-6);}.cls-7{clip-path:url(#clippath-7);}.cls-8{clip-path:url(#clippath-1);}.cls-9{clip-path:url(#clippath-4);}.cls-2{stroke-miterlimit:8;}.cls-10{clip-path:url(#clippath-9);}.cls-11{clip-path:url(#clippath);}.cls-3{clip-rule:evenodd;}.cls-12{clip-path:url(#clippath-3);}.cls-13{clip-path:url(#clippath-8);}.cls-14{clip-path:url(#clippath-5);}</style><clipPath id="clippath"><polygon class="cls-3" points="30.88 415.89 416.01 415.89 416.01 31 30.88 31 30.88 415.89 30.88 415.89"/></clipPath><clipPath id="clippath-1"><polygon class="cls-3" points="30.88 415.89 416.01 415.89 416.01 31 30.88 31 30.88 415.89 30.88 415.89"/></clipPath><clipPath id="clippath-2"><polygon class="cls-3" points="30.88 415.89 416.01 415.89 416.01 31 30.88 31 30.88 415.89 30.88 415.89"/></clipPath><clipPath id="clippath-3"><polygon class="cls-3" points="30.88 415.89 416.01 415.89 416.01 31 30.88 31 30.88 415.89 30.88 415.89"/></clipPath><clipPath id="clippath-4"><polygon class="cls-3" points="30.88 415.89 416.01 415.89 416.01 31 30.88 31 30.88 415.89 30.88 415.89"/></clipPath><clipPath id="clippath-5"><polygon class="cls-3" points="30.88 415.89 416.01 415.89 416.01 31 30.88 31 30.88 415.89 30.88 415.89"/></clipPath><clipPath id="clippath-6"><polygon class="cls-3" points="30.88 415.89 416.01 415.89 416.01 31 30.88 31 30.88 415.89 30.88 415.89"/></clipPath><clipPath id="clippath-7"><polygon class="cls-3" points="30.88 415.89 416.01 415.89 416.01 31 30.88 31 30.88 415.89 30.88 415.89"/></clipPath><clipPath id="clippath-8"><polygon class="cls-3" points="30.88 415.89 416.01 415.89 416.01 31 30.88 31 30.88 415.89 30.88 415.89"/></clipPath><clipPath id="clippath-9"><polygon class="cls-3" points="30.88 415.89 416.01 415.89 416.01 31 30.88 31 30.88 415.89 30.88 415.89"/></clipPath></defs><g id="_レイヤー_1-2"><rect class="cls-4" width="446.89" height="446.89"/><g><line class="cls-1" x1="137.8" y1="358.44" x2="137.8" y2="388.76"/><g class="cls-11"><line class="cls-1" x1="226.37" y1="335.91" x2="226.37" y2="388.75"/><g class="cls-8"><line class="cls-1" x1="314.81" y1="311.83" x2="314.81" y2="393.65"/><g class="cls-5"><path class="cls-2" d="M178.45,160.81c0-17.05,13.82-30.87,30.87-30.87s30.87,13.82,30.87,30.87-13.82,30.87-30.87,30.87-30.87-13.82-30.87-30.87h0Z"/><g class="cls-12"><path class="cls-2" d="M243.65,224.94c0-17.05,13.82-30.87,30.87-30.87s30.87,13.82,30.87,30.87-13.82,30.87-30.87,30.87-30.87-13.82-30.87-30.87h0Z"/><g class="cls-9"><line class="cls-1" x1="88.45" y1="285.09" x2="187.42" y2="187.86"/><g class="cls-14"><line class="cls-1" x1="300.75" y1="198.79" x2="399.71" y2="101.56"/><g class="cls-6"><line class="cls-1" x1="247.89" y1="200.63" x2="233.88" y2="186.91"/><g class="cls-7"><path class="cls-1" d="M68.49,403.5c-13.92,0-25.21-11.29-25.21-25.21"/><g class="cls-13"><line class="cls-1" x1="68.43" y1="403.5" x2="403.5" y2="403.5"/><g class="cls-10"><line class="cls-1" x1="43.28" y1="378.34" x2="43.28" y2="43.4"/></g></g></g></g></g></g></g></g></g></g></g></g></svg>