<?xml version="1.0" encoding="UTF-8"?><svg id="_レイヤー_2" xmlns="http://www.w3.org/2000/svg" viewBox="0 0 449.89 449.89"><defs><style>.cls-1{stroke-miterlimit:8;}.cls-1,.cls-2,.cls-3,.cls-4{fill:none;}.cls-1,.cls-2,.cls-4{stroke:#231815;}.cls-1,.cls-4{stroke-width:25px;}.cls-2{fill-rule:evenodd;stroke-miterlimit:10;}.cls-4{stroke-linecap:round;stroke-linejoin:round;}</style></defs><g id="_レイヤー_1-2"><g><path class="cls-2" d="M140.14,274.32c0-18.19,14.72-32.94,32.88-32.94s32.88,14.75,32.88,32.94-14.72,32.94-32.88,32.94-32.88-14.75-32.88-32.94h0Z"/><path class="cls-1" d="M140.14,274.32c0-18.19,14.72-32.94,32.88-32.94s32.88,14.75,32.88,32.94-14.72,32.94-32.88,32.94-32.88-14.75-32.88-32.94h0Z"/><path class="cls-2" d="M209.62,342.66c0-18.16,14.75-32.88,32.94-32.88s32.94,14.72,32.94,32.88-14.75,32.88-32.94,32.88-32.94-14.72-32.94-32.88h0Z"/><path class="cls-1" d="M209.62,342.66c0-18.16,14.75-32.88,32.94-32.88s32.94,14.72,32.94,32.88-14.75,32.88-32.94,32.88-32.94-14.72-32.94-32.88h0Z"/><line class="cls-4" x1="44.14" y1="406.75" x2="149.67" y2="303.06"/><line class="cls-4" x1="270.46" y1="314.71" x2="375.99" y2="211.02"/><line class="cls-4" x1="214.24" y1="316.74" x2="199.3" y2="302.1"/><path class="cls-2" d="M169.78,106.38c0-18.16,14.75-32.88,32.94-32.88s32.94,14.72,32.94,32.88-14.75,32.88-32.94,32.88-32.94-14.72-32.94-32.88h0Z"/><path class="cls-1" d="M169.78,106.38c0-18.16,14.75-32.88,32.94-32.88s32.94,14.72,32.94,32.88-14.75,32.88-32.94,32.88-32.94-14.72-32.94-32.88h0Z"/><path class="cls-2" d="M239.38,174.72c0-18.19,14.72-32.94,32.88-32.94s32.88,14.75,32.88,32.94-14.72,32.94-32.88,32.94-32.88-14.75-32.88-32.94h0Z"/><path class="cls-1" d="M239.38,174.72c0-18.19,14.72-32.94,32.88-32.94s32.88,14.75,32.88,32.94-14.72,32.94-32.88,32.94-32.88-14.75-32.88-32.94h0Z"/><line class="cls-4" x1="73.78" y1="238.75" x2="179.31" y2="135.06"/><line class="cls-4" x1="300.22" y1="146.83" x2="405.75" y2="43.14"/><line class="cls-4" x1="243.88" y1="148.74" x2="228.94" y2="134.1"/></g><rect class="cls-3" width="449.89" height="449.89"/></g></svg>