<?xml version="1.0" encoding="UTF-8" standalone="no"?>
<svg
   version="1.1"
   id="Layer_1"
   x="0px"
   y="0px"
   viewBox="0 0 1024 1024"
   enable-background="new 0 0 1080 1080"
   xml:space="preserve"
   sodipodi:docname="list.svg"
   inkscape:version="1.2 (dc2aedaf03, 2022-05-15)"
   xmlns:inkscape="http://www.inkscape.org/namespaces/inkscape"
   xmlns:sodipodi="http://sodipodi.sourceforge.net/DTD/sodipodi-0.dtd"
   xmlns="http://www.w3.org/2000/svg"
   xmlns:svg="http://www.w3.org/2000/svg"><defs
   id="defs8430" /><sodipodi:namedview
   id="namedview8428"
   pagecolor="#ffffff"
   bordercolor="#000000"
   borderopacity="0.25"
   inkscape:showpageshadow="2"
   inkscape:pageopacity="0.0"
   inkscape:pagecheckerboard="true"
   inkscape:deskcolor="#d1d1d1"
   showgrid="false"
   inkscape:zoom="0.92777778"
   inkscape:cx="437.60479"
   inkscape:cy="508.74251"
   inkscape:window-width="2560"
   inkscape:window-height="1377"
   inkscape:window-x="1912"
   inkscape:window-y="1072"
   inkscape:window-maximized="1"
   inkscape:current-layer="Layer_1" />





<g
   id="g373"
   transform="matrix(1.3565156,0,0,1.3565156,2.5773797e-4,199.89809)"><path
     id="path8407"
     d="M 164.39844,0 V 75.5625 H 754.875 V 0 H 592.28906 Z m 0.10546,96.22656 v 75.80664 h 14.78907 575.55859 V 96.22656 Z m -0.0195,95.80664 v 75.63086 H 754.87304 V 192.0332 H 626.28906 Z m 0.0312,96.33398 v 75.82227 c 101.3395,0 202.30674,6e-5 303.77344,0 95.77035,-6e-5 191.04136,0 286.55469,0 v -75.82227 z m -0.01,96.08399 v 75.69141 h 124.78349 465.4707 v -75.69141 z"
     opacity="0.7" /><path
     id="path8417"
     d="m 0.00781,0.20898 v 75.41211 h 144.13281 c 0,-10.86205 -3e-5,-21.47511 0,-32.58789 3e-5,-14.59218 0,-28.68477 0,-42.82422 z m 0.008,96.0293 v 75.54101 h 144.1211 v -70.59961 c -0.077,-1.94109 -0.15268,-3.39749 -0.23438,-4.9414 z m -0.004,95.79297 v 75.5957 h 143.86132 v -75.5957 H 50.28906 Z m -0.01,96.32617 v 75.8418 h 93.28725 c 17.11671,-7e-5 33.73265,0 50.5957,0 v -75.8418 z m -0.002,96.0918 v 75.70312 H 131.2791 c 4.45575,-6e-5 8.41291,0 12.50782,0 v -75.70312 z" /></g>




</svg>
