<?xml version="1.0" encoding="UTF-8"?>
<svg id="Layer_1" data-name="Layer 1" xmlns="http://www.w3.org/2000/svg" viewBox="0 0 1100 269.82">
  <defs>
    <style>
      .cls-1 {
        fill: #1b92a0;
      }

      .cls-2 {
        fill: #4c6ea1;
      }

      .cls-3 {
        fill: #015289;
      }
    </style>
  </defs>
  <path class="cls-2" d="M168.98,201.06h13.46l25.1,68.28h-13.66l-5.67-17.02h-25.07l-5.7,17.02h-13.66l25.2-68.28Zm16.13,41.93l-9.39-28.18-9.44,28.18h18.83Z"/>
  <path class="cls-2" d="M266.79,225.49v43.85h-13.27v-68.28h10.68l35.2,45.01v-44.91h13.18v68.19h-10.96l-34.81-43.85Z"/>
  <path class="cls-2" d="M383.92,201.06h13.46l25.1,68.28h-13.66l-5.67-17.02h-25.07l-5.7,17.02h-13.66l25.2-68.28Zm16.13,41.93l-9.39-28.18-9.44,28.18h18.83Z"/>
  <path class="cls-2" d="M468.46,269.34v-68.28h13.27v56.65h34.81v11.64h-48.09Z"/>
  <path class="cls-2" d="M560.88,201.06l16.83,32.12,17.12-32.12h14.33l-24.81,44.43v23.85h-13.18v-24.04l-24.62-44.24h14.33Z"/>
  <path class="cls-2" d="M706.1,212.7h-21.74v56.65h-13.17v-56.65h-21.93v-11.64h56.84v11.64Z"/>
  <path class="cls-2" d="M753.13,269.34v-68.28h13.27v68.28h-13.27Z"/>
  <path class="cls-2" d="M814.96,234.62c0-4.23,.75-8.35,2.26-12.36,1.51-4.01,3.72-7.65,6.64-10.91,2.92-3.27,6.46-5.88,10.63-7.84,4.17-1.95,8.88-2.93,14.14-2.93,6.28,0,11.72,1.38,16.3,4.14,4.58,2.76,7.97,6.35,10.15,10.77l-10.1,7.02c-1.15-2.56-2.66-4.58-4.52-6.06-1.86-1.47-3.86-2.53-6.01-3.17-2.15-.64-4.22-.96-6.2-.96-3.33,0-6.24,.67-8.7,2.02-2.47,1.35-4.52,3.11-6.16,5.29-1.63,2.18-2.87,4.62-3.7,7.31-.83,2.69-1.25,5.42-1.25,8.17,0,2.95,.48,5.82,1.44,8.61,.96,2.79,2.32,5.26,4.09,7.41,1.76,2.15,3.88,3.85,6.35,5.1,2.47,1.25,5.18,1.88,8.13,1.88,2.05,0,4.17-.35,6.35-1.06,2.18-.7,4.2-1.83,6.06-3.37,1.86-1.54,3.37-3.56,4.52-6.06l10.77,6.35c-1.41,3.4-3.64,6.28-6.68,8.66-3.05,2.37-6.44,4.17-10.19,5.39-3.75,1.22-7.49,1.83-11.2,1.83-4.87,0-9.31-1.01-13.32-3.03-4.01-2.02-7.49-4.71-10.43-8.08-2.95-3.37-5.24-7.15-6.88-11.35-1.63-4.2-2.45-8.45-2.45-12.74Z"/>
  <path class="cls-2" d="M964.22,218.95c-.45-.45-1.27-1.04-2.45-1.78-1.19-.74-2.63-1.49-4.33-2.26-1.7-.77-3.54-1.41-5.53-1.92-1.99-.51-4.01-.77-6.06-.77-3.59,0-6.3,.66-8.13,1.96-1.83,1.31-2.74,3.21-2.74,5.69,0,1.85,.58,3.32,1.73,4.4,1.15,1.08,2.89,2.01,5.19,2.78,2.31,.77,5.19,1.59,8.66,2.49,4.49,1.08,8.38,2.41,11.68,3.97,3.3,1.56,5.83,3.61,7.6,6.12,1.76,2.52,2.64,5.89,2.64,10.09,0,3.57-.67,6.64-2.02,9.19-1.35,2.55-3.19,4.64-5.53,6.27-2.34,1.63-5.03,2.81-8.08,3.54-3.05,.73-6.27,1.1-9.67,1.1s-6.8-.35-10.19-1.06c-3.4-.7-6.65-1.71-9.76-3.03-3.11-1.31-6.01-2.9-8.7-4.76l5.87-11.44c.58,.58,1.6,1.33,3.08,2.26,1.47,.93,3.27,1.86,5.39,2.79,2.12,.93,4.42,1.72,6.92,2.36,2.5,.64,5.03,.96,7.6,.96,3.65,0,6.38-.59,8.17-1.76,1.79-1.17,2.69-2.9,2.69-5.18,0-2.04-.72-3.65-2.16-4.84-1.44-1.18-3.48-2.2-6.11-3.07-2.63-.86-5.74-1.77-9.33-2.73-4.36-1.21-7.97-2.58-10.82-4.12-2.85-1.53-5-3.43-6.44-5.7s-2.16-5.12-2.16-8.57c0-4.66,1.12-8.57,3.37-11.73,2.24-3.16,5.26-5.55,9.04-7.18,3.78-1.63,7.98-2.44,12.6-2.44,3.21,0,6.23,.35,9.09,1.06,2.85,.71,5.53,1.63,8.03,2.79,2.5,1.15,4.74,2.4,6.73,3.75l-5.87,10.77Z"/>
  <path class="cls-3" d="M332.7,22.5c-4.13-4.77-8.86-8.87-14.2-12.29-5.1,3.18-9.69,6.99-13.76,11.41-1.79,1.95-3.48,3.98-5.05,6.09,.24,.12,.48,.24,.73,.36,4.96,2.55,9.2,6,12.72,10.38,1.99,2.47,3.71,5.12,5.15,7.97,1.36-2.7,2.98-5.23,4.85-7.59,3.46-4.36,7.7-7.89,12.72-10.57,.33-.18,.67-.35,1.02-.51-1.3-1.8-2.69-3.56-4.17-5.26Z"/>
  <path class="cls-1" d="M420.67,71.03c0,9.13-1.66,17.9-4.99,26.31-3.33,8.41-8.03,15.92-14.09,22.5-6.06,6.59-13.24,11.78-21.53,15.55-8.28,3.79-17.32,5.67-27.1,5.67s-19.37-1.95-27.59-5.86c-.06-.03-.12-.06-.18-.09-.01,0-.01-.01-.02-.01-2.41-1.17-4.74-2.44-6.96-3.85-5.26-3.31-9.98-7.31-14.16-12-1.55-1.74-3.01-3.54-4.39-5.39-1.41-1.92-2.73-3.9-3.95-5.95-2.16-3.59-4.01-7.38-5.55-11.36-3.26-8.41-4.9-17.04-4.9-25.92s1.73-18.1,5.19-26.51c1.51-3.66,3.26-7.15,5.26-10.47,.01,0,.01-.01,.01-.01,.2,.09,.41,.19,.61,.29,.09,.03,.17,.07,.25,.11l.6,.29c4.11,2.13,7.53,4.92,10.47,8.54,.75,.94,1.45,1.89,2.11,2.88,.26,.39,.52,.81,.78,1.22,.21,.35,.42,.72,.62,1.08,.28,.48,.54,.97,.79,1.46,.03,.04,.05,.09,.07,.13,.41,.81,.81,1.63,1.17,2.49,.46,1.1,.89,2.23,1.27,3.39,.06,.17,.11,.34,.16,.52-1.31,4.78-1.95,9.64-1.95,14.58s.64,9.98,1.94,14.77h0c.24,.9,.51,1.77,.8,2.65,.81,2.48,1.77,4.84,2.91,7.07,1.4,2.82,3.08,5.45,5.01,7.89,3.46,4.37,7.7,7.83,12.72,10.38,.3,.15,.61,.3,.93,.45,2.2,1.03,4.51,1.82,6.97,2.38h.01c2.89,.65,5.96,.99,9.22,.99,6.65,0,12.45-1.34,17.41-4.01,4.96-2.68,9.17-6.24,12.62-10.67,3.46-4.43,6.03-9.46,7.73-15.07,1.7-5.6,2.55-11.21,2.55-16.82,0-6-.92-11.78-2.74-17.32-1.82-5.55-4.5-10.5-8.02-14.87-3.53-4.37-7.77-7.83-12.72-10.38-4.96-2.55-10.63-3.82-17.02-3.82-3.24,0-6.32,.34-9.2,1.05h-.02c-2.42,.57-4.71,1.38-6.88,2.45-1.3-1.8-2.69-3.56-4.17-5.26-4.13-4.77-8.86-8.87-14.2-12.29,2.22-1.39,4.51-2.65,6.93-3.8h.01c.3-.15,.61-.3,.93-.44,8.34-3.85,17.41-5.77,27.19-5.77s19.21,2.02,27.5,6.06c8.28,4.05,15.35,9.46,21.22,16.24,5.87,6.79,10.41,14.35,13.6,22.7,3.19,8.34,4.79,16.95,4.79,25.83Z"/>
  <path class="cls-1" d="M116.81,.98V139.9h-26.81v-59.29H27v59.29H0V.98H27V57.13h63V.98h26.81Z"/>
  <path class="cls-3" d="M253.76,103.01c-2.49-3.14-4.55-6.61-6.19-10.4-1.54,3.58-3.5,6.88-5.85,9.91-3.36,4.32-7.45,7.81-12.25,10.46,1.55,2.17,3.22,4.26,5.03,6.28,3.87,4.34,8.21,8.09,13,11.25,4.63-3.01,8.83-6.57,12.61-10.67,2.01-2.19,3.88-4.48,5.59-6.87-4.68-2.5-8.66-5.82-11.94-9.96Z"/>
  <path class="cls-1" d="M279.18,71.03c0,9.13-1.66,17.9-5,26.31-1.33,3.37-2.88,6.6-4.66,9.68-.13-.06-.26-.13-.39-.2l-.12-.07c-3.79-2.02-7.06-4.75-9.72-8.12-2.1-2.64-3.87-5.61-5.27-8.84-.53-1.23-1.04-2.55-1.48-3.91-.58-1.79-1.06-3.62-1.42-5.46,.57-3.25,.87-6.52,.87-9.78s-.28-6.57-.84-9.75c-.45-2.57-1.09-5.09-1.9-7.56-.5-1.52-1.07-2.99-1.7-4.42-1.66-3.8-3.77-7.27-6.33-10.45-3.28-4.08-7.19-7.36-11.74-9.85-.32-.18-.64-.35-.98-.52-1.79-.92-3.69-1.68-5.68-2.27-3.49-1.04-7.27-1.55-11.34-1.55-6.4,0-12.1,1.34-17.12,4.01-5.02,2.68-9.26,6.21-12.71,10.57-3.46,4.37-6.06,9.33-7.83,14.88-1.76,5.54-2.64,11.18-2.64,16.92s.91,11.81,2.74,17.42c1.82,5.6,4.46,10.6,7.92,14.96,3.46,4.37,7.7,7.83,12.72,10.38,5.02,2.54,10.73,3.82,17.11,3.82,4.01,0,7.72-.48,11.1-1.46,2.24-.63,4.34-1.49,6.32-2.55,.13-.07,.25-.14,.37-.21,1.55,2.17,3.22,4.26,5.03,6.28,3.87,4.34,8.21,8.09,13,11.25-2.17,1.41-4.42,2.7-6.78,3.87-.71,.35-1.42,.68-2.14,1.02-8.28,3.79-17.32,5.67-27.1,5.67s-19.37-1.95-27.59-5.86c-8.22-3.92-15.33-9.23-21.32-15.95-6-6.72-10.64-14.28-13.89-22.7-3.26-8.41-4.9-17.04-4.9-25.92s1.73-18.1,5.19-26.51c3.46-8.41,8.22-15.92,14.28-22.5,6.06-6.59,13.27-11.81,21.62-15.65C193.22,2.12,202.29,.2,212.07,.2s19.21,2.02,27.49,6.06c.5,.24,1,.49,1.49,.77,2.33,1.2,4.57,2.51,6.7,3.94,4.87,3.26,9.21,7.11,13.04,11.53,1.71,1.98,3.32,4.04,4.8,6.16,1.36,1.93,2.62,3.92,3.79,5.96,1.92,3.37,3.6,6.9,5.01,10.58,3.19,8.34,4.79,16.95,4.79,25.83Z"/>
  <path class="cls-1" d="M346.3,45.2c-1.53-4.01-3.37-7.83-5.53-11.47-1.2-2.04-2.5-4.04-3.9-5.97-1.3-1.8-2.69-3.56-4.17-5.26-4.13-4.77-8.86-8.87-14.2-12.29-2.2-1.41-4.49-2.7-6.89-3.89-.04-.02-.09-.04-.13-.06-8.29-4.04-17.45-6.06-27.49-6.06s-18.86,1.92-27.2,5.77c-.79,.36-1.56,.74-2.33,1.13,4.28,3.16,8.17,6.77,11.65,10.79,2.2,2.54,4.22,5.19,6.08,7.95,3.47-1.05,7.2-1.57,11.2-1.57,3.23,0,6.3,.32,9.16,.99,2.53,.57,4.91,1.4,7.13,2.47,.24,.12,.48,.24,.73,.36,4.96,2.55,9.2,6,12.72,10.38,1.99,2.47,3.71,5.12,5.15,7.97,1.13,2.19,2.08,4.48,2.87,6.9,.21,.63,.4,1.27,.59,1.9,1.43,4.96,2.15,10.09,2.15,15.41,0,4.92-.64,9.83-1.95,14.74-.18,.7-.37,1.39-.58,2.09-.82,2.69-1.82,5.25-3.04,7.67,1.4,2.82,3.08,5.45,5.01,7.89,3.46,4.37,7.7,7.83,12.72,10.38,.3,.15,.61,.3,.93,.45,1.42-1.91,2.74-3.9,3.96-5.95,1.99-3.34,3.72-6.86,5.18-10.55,3.32-8.41,4.99-17.18,4.99-26.31s-1.59-17.49-4.79-25.83Zm-47.5,78.75c-1.68-1.89-3.29-3.87-4.78-5.87-.45-.61-.89-1.23-1.31-1.83-2.84,.64-5.87,.96-9.11,.96-4.01,0-7.75-.5-11.21-1.5-2.06-.59-4.04-1.37-5.91-2.32-.26-.13-.52-.27-.78-.41-4.68-2.5-8.66-5.82-11.94-9.96-2.49-3.14-4.55-6.61-6.19-10.4-.64-1.47-1.22-2.99-1.73-4.56-.81-2.49-1.44-5.04-1.89-7.61-.56-3.21-.85-6.48-.85-9.81s.29-6.55,.87-9.76c.43-2.41,1.03-4.79,1.77-7.16,.52-1.66,1.13-3.26,1.81-4.81-1.66-3.8-3.77-7.27-6.33-10.45-3.28-4.08-7.19-7.36-11.74-9.85-1.38,1.91-2.67,3.9-3.86,5.94-1.79,3.05-3.36,6.25-4.73,9.58-3.47,8.41-5.19,17.25-5.19,26.51s1.63,17.51,4.89,25.92c1.42,3.67,3.1,7.16,5.03,10.5,1.19,2.04,2.47,4.02,3.85,5.93,1.55,2.17,3.22,4.26,5.03,6.28,3.87,4.34,8.21,8.09,13,11.25,2.16,1.43,4.41,2.73,6.75,3.92,.52,.26,1.05,.52,1.57,.78,8.22,3.91,17.42,5.86,27.59,5.86s18.81-1.88,27.1-5.67c.24-.11,.48-.22,.73-.34-4.53-3.2-8.7-6.92-12.43-11.1Z"/>
  <path class="cls-1" d="M444.22,139.9V.98h27V116.22h70.83v23.68h-97.83Z"/>
  <path class="cls-1" d="M570.42,139.9V.98h50.48c15.13,0,27.78,3.1,37.96,9.29,10.17,6.2,17.81,14.55,22.89,25.04,5.09,10.5,7.63,22.14,7.63,34.92,0,14.09-2.81,26.35-8.41,36.78-5.61,10.44-13.53,18.52-23.77,24.26-10.24,5.74-22.34,8.61-36.29,8.61h-50.48Zm91.76-69.65c0-9-1.63-16.92-4.89-23.77-3.26-6.85-7.96-12.19-14.09-16.04-6.13-3.85-13.57-5.77-22.3-5.77h-23.48V116.22h23.48c9,0,16.53-2.02,22.6-6.07,6.07-4.04,10.69-9.52,13.89-16.43,3.2-6.91,4.79-14.74,4.79-23.48Z"/>
  <path class="cls-1" d="M819.82,116.22v23.68h-96.46V.98h94.7V24.65h-67.7V58.11h58.31v21.91h-58.31v36.2h69.46Z"/>
  <path class="cls-1" d="M855.63,139.9V.98h61.63c6.26,0,12.1,1.3,17.51,3.91,5.41,2.61,10.11,6.13,14.09,10.57,3.98,4.44,7.05,9.39,9.2,14.87,2.15,5.48,3.23,11.09,3.23,16.83s-1.01,11.48-3.03,16.83c-2.02,5.35-4.92,10.08-8.71,14.19-3.79,4.11-8.22,7.27-13.31,9.49l31.7,52.24h-29.74l-28.56-46.57h-27v46.57h-27Zm27-70.24h33.85c3.39,0,6.39-1.01,9-3.03,2.61-2.02,4.7-4.73,6.26-8.12,1.57-3.39,2.35-7.17,2.35-11.35s-.91-8.15-2.74-11.54c-1.83-3.39-4.11-6.07-6.85-8.02-2.74-1.96-5.74-2.93-9-2.93h-32.87v45Z"/>
  <path class="cls-1" d="M1083.17,37.37c-.92-.91-2.58-2.12-4.99-3.62-2.41-1.5-5.35-3.03-8.8-4.6-3.46-1.57-7.21-2.87-11.25-3.91-4.04-1.04-8.15-1.57-12.33-1.57-7.31,0-12.82,1.33-16.53,3.99-3.72,2.66-5.58,6.52-5.58,11.58,0,3.77,1.18,6.75,3.52,8.96,2.35,2.21,5.87,4.09,10.56,5.65,4.7,1.56,10.57,3.24,17.61,5.06,9.13,2.21,17.05,4.9,23.77,8.08,6.72,3.18,11.87,7.33,15.46,12.46,3.59,5.13,5.38,11.97,5.38,20.54,0,7.27-1.37,13.5-4.11,18.69-2.74,5.19-6.49,9.44-11.25,12.75-4.76,3.31-10.24,5.71-16.44,7.2-6.2,1.49-12.75,2.24-19.66,2.24s-13.83-.72-20.74-2.15c-6.91-1.43-13.53-3.49-19.86-6.16-6.33-2.67-12.23-5.9-17.71-9.69l11.94-23.28c1.18,1.17,3.26,2.71,6.26,4.6,3,1.89,6.65,3.79,10.96,5.67,4.3,1.89,9,3.49,14.09,4.79,5.09,1.31,10.24,1.96,15.46,1.96,7.44,0,12.98-1.19,16.63-3.58,3.65-2.38,5.48-5.9,5.48-10.54,0-4.16-1.47-7.44-4.4-9.84-2.94-2.4-7.08-4.48-12.43-6.24-5.35-1.75-11.67-3.6-18.98-5.55-8.87-2.47-16.21-5.26-22.01-8.38-5.81-3.12-10.17-6.98-13.11-11.59-2.93-4.61-4.4-10.42-4.4-17.44,0-9.48,2.28-17.44,6.85-23.87,4.56-6.43,10.69-11.3,18.39-14.61,7.7-3.31,16.24-4.97,25.63-4.97,6.52,0,12.69,.72,18.49,2.15,5.8,1.44,11.25,3.33,16.34,5.67,5.09,2.35,9.65,4.89,13.7,7.63l-11.94,21.91Z"/>
</svg>